<?xml version="1.0" encoding="UTF-8" standalone="no"?>
<!-- Created with Inkscape (http://www.inkscape.org/) -->

<svg
   width="33.330704mm"
   height="41.470242mm"
   viewBox="0 0 33.330704 41.470242"
   version="1.1"
   id="svg5"
   inkscape:version="1.1.1 (3bf5ae0d25, 2021-09-20)"
   sodipodi:docname="rocketseat1.svg"
   xmlns:inkscape="http://www.inkscape.org/namespaces/inkscape"
   xmlns:sodipodi="http://sodipodi.sourceforge.net/DTD/sodipodi-0.dtd"
   xmlns="http://www.w3.org/2000/svg"
   xmlns:svg="http://www.w3.org/2000/svg">
  <sodipodi:namedview
     id="namedview7"
     pagecolor="#ffffff"
     bordercolor="#666666"
     borderopacity="1.0"
     inkscape:pageshadow="2"
     inkscape:pageopacity="0.0"
     inkscape:pagecheckerboard="0"
     inkscape:document-units="mm"
     showgrid="false"
     inkscape:zoom="0.46324355"
     inkscape:cx="121.96608"
     inkscape:cy="85.268322"
     inkscape:window-width="1366"
     inkscape:window-height="705"
     inkscape:window-x="-8"
     inkscape:window-y="-8"
     inkscape:window-maximized="1"
     inkscape:current-layer="layer1" />
  <defs
     id="defs2" />
  <g
     inkscape:label="Camada 1"
     inkscape:groupmode="layer"
     id="layer1"
     transform="translate(-82.496198,-109.04974)">
    <path
       style="fill:#000000;stroke-width:0.264583"
       d="m 82.496198,150.09097 c 0.004,-0.25466 0.41805,-1.10855 0.92072,-1.89753 0.68856,-1.08075 0.84273,-1.52032 0.62516,-1.78247 -0.30562,-0.36826 -0.10275,-0.95623 2.34,-6.78166 1.08819,-2.59508 1.29196,-2.90326 2.23916,-3.38649 0.66377,-0.33863 1.25192,-0.46499 1.62022,-0.34809 0.51745,0.16423 0.53946,0.13684 0.20949,-0.26075 -0.31066,-0.37432 -0.31409,-0.67188 -0.0218,-1.89025 0.28679,-1.19547 0.28619,-1.699 -0.003,-2.90637 -0.32052,-1.33609 -0.30998,-1.48989 0.12386,-1.80712 0.43461,-0.31779 0.37748,-0.40342 -0.68443,-1.02574 -1.73733,-1.01814 -2.13711,-1.56577 -2.01373,-2.75841 l 0.10534,-1.01814 0.0445,1.11462 c 0.0417,1.04462 0.14001,1.17902 1.56583,2.14001 0.83674,0.56397 2.06706,1.34199 2.73403,1.72895 0.66697,0.38696 1.21267,0.88577 1.21267,1.10849 0,0.2227 -0.12898,0.35697 -0.28663,0.29835 -0.15765,-0.0586 -0.25392,-0.24936 -0.21393,-0.42389 0.04,-0.17453 -0.0491,-0.24204 -0.19798,-0.15004 -0.14887,0.092 -0.5355,-0.0182 -0.85917,-0.24491 -0.66051,-0.46262 -1.52912,-0.54863 -1.52912,-0.15142 0,0.14343 0.14264,0.79411 0.31698,1.44594 0.24843,0.92886 0.24598,1.46216 -0.0113,2.46616 -0.39484,1.5406 -0.29625,1.8313 0.94026,2.77243 1.19384,0.90865 1.92171,0.91975 2.74287,0.0419 0.85469,-0.91374 1.49008,-1.24046 2.75463,-1.41642 1.757904,-0.24461 1.49763,-0.81815 -1.13104,-2.4923 -1.29204,-0.82288 -2.34917,-1.67357 -2.34917,-1.89042 0,-0.48788 0.1656,-0.48566 0.82227,0.011 0.84072,0.63589 1.34059,0.46347 3.16058,-1.09019 1.709091,-1.45899 1.744817,-1.47445 2.687952,-1.16318 0.89632,0.29581 1.01948,0.26431 1.9777,-0.50573 1.21177,-0.97381 1.2049,-0.97311 2.67764,-0.27257 1.19868,0.57018 0.7165,0.54051 -0.74049,-0.0456 -0.78358,-0.3152 -0.89518,-0.28371 -1.79514,0.50646 -1.08129,0.94939 -1.08343,0.94993 -2.21831,0.5543 -0.782043,-0.27262 -0.911853,-0.21437 -2.392852,1.07376 -0.86126,0.74911 -1.90054,1.4515 -2.30949,1.56087 -0.72597,0.19416 -0.69852,0.22664 1.16047,1.37364 1.40102,0.86443 1.90463,1.32458 1.90629,1.74179 0.003,0.62923 -0.45906,0.8882 -1.58311,0.8882 -0.47354,0 -1.24003,0.38865 -2.08724,1.05834 -0.7364,0.58208 -1.58855,1.05833 -1.89368,1.05833 -0.45068,0 -0.52201,0.11171 -0.38016,0.59531 0.17356,0.5917 0.17218,0.592 -0.22693,0.0497 -0.22085,-0.30007 -0.88514,-0.88072 -1.4762,-1.29032 -0.96706,-0.67017 -1.15255,-0.71246 -1.85278,-0.42242 -1.21075,0.50151 -1.48871,0.95357 -3.32038,5.40008 -1.37818,3.34564 -1.65796,4.25577 -1.42362,4.63101 0.23671,0.37903 0.10253,0.75188 -0.71211,1.97882 -0.78729,1.18574 -0.93448,1.58109 -0.68249,1.83308 0.25199,0.25199 1.31415,-0.69998 4.92477,-4.41385 3.97835,-4.09213 4.61726,-4.86459 4.70495,-5.68839 l 0.10146,-0.95325 0.0445,1.04165 c 0.0433,1.01368 -0.0814,1.16821 -4.64225,5.75469 -4.40587,4.4306 -5.64156,5.36419 -5.62526,4.25002 z m 9.78281,-12.86604 c 0,-0.0549 -0.20836,-0.2633 -0.46302,-0.46302 -0.41965,-0.32911 -0.429,-0.31975 -0.0999,0.0999 0.34564,0.44073 0.56292,0.58089 0.56292,0.36313 z m 2.64583,-6.08951 c 0,-0.0572 -0.18477,-0.17489 -0.41061,-0.26155 -0.23546,-0.0904 -0.34167,-0.046 -0.24897,0.10398 0.15538,0.25141 0.65958,0.37186 0.65958,0.15757 z m -9.26041,14.96475 c 0,-0.29104 -0.1129,-0.56885 -0.25088,-0.61736 -0.13798,-0.0485 0.48729,-1.87133 1.38948,-4.05072 1.398,-3.37707 1.74538,-3.99946 2.35118,-4.21251 0.57696,-0.2029 0.88794,-0.12934 1.65142,0.39065 0.83989,0.57205 0.94079,0.76656 0.94241,1.81677 0.002,1.13826 -0.0898,1.27034 -2.84247,4.10104 -1.56435,1.6087 -2.93357,2.9646 -3.04271,3.0131 -0.10914,0.0485 -0.19843,-0.14992 -0.19843,-0.44097 z m 6.40358,-10.56128 -0.85246,-0.72761 0.39041,-1.26883 c 0.22428,-0.72889 0.31878,-1.62698 0.22208,-2.11047 l -0.16832,-0.84165 0.77266,0.5025 c 4.38708,2.85314 4.43937,2.89665 3.7148,3.09043 -0.37701,0.10083 -1.18489,0.6108 -1.79528,1.13328 -0.61039,0.52247 -1.18217,0.94995 -1.27061,0.94995 -0.0884,0 -0.54442,-0.32742 -1.01328,-0.7276 z m 0.38904,-7.18178 c -3.73974,-2.35977 -3.70323,-2.31928 -3.47331,-3.85253 l 0.1873,-1.24899 0.91072,0.17085 c 0.67179,0.12603 1.15286,0.028 1.83369,-0.37371 1.14551,-0.67587 1.44688,-0.67756 2.74481,-0.0154 1.81087,0.92383 2.10194,0.79133 4.213826,-1.91823 1.04915,-1.34607 2.762656,-3.5459 3.807796,-4.88852 l 1.90025,-2.44112 1.32538,0.15496 1.32538,0.15496 0.46688,-1.02113 c 0.25679,-0.56162 0.851,-1.45227 1.32046,-1.97921 l 0.85357,-0.95808 2.22501,0.35478 c 1.22375,0.19513 2.31978,0.38814 2.4356,0.42892 0.11583,0.0408 -0.37941,0.83228 -1.10052,1.75891 -0.72112,0.92663 -1.31113,1.83479 -1.31113,2.01812 0,0.48397 0.59125,0.90003 1.55208,1.0922 0.4621,0.0924 0.89908,0.26332 0.97106,0.37979 0.072,0.11647 -0.44307,0.90476 -1.14456,1.75177 -0.70148,0.847 -1.79743,2.25437 -2.43543,3.1275 -2.24918,3.07809 -4.63073,5.95312 -4.93129,5.95312 -0.16724,0 -0.81178,-0.2273 -1.43231,-0.50512 -1.28853,-0.57689 -1.65881,-0.50562 -2.76762,0.53275 -0.58097,0.54406 -0.90191,0.67747 -1.19063,0.49495 -0.907769,-0.5739 -1.809786,-0.26405 -3.485302,1.19722 -0.91771,0.80036 -1.72897,1.45152 -1.8028,1.44703 -0.0738,-0.004 -1.42334,-0.8216 -2.99891,-1.81579 z m 15.093462,-1.53112 c 0.98905,-1.06208 2.16557,-2.56702 7.31103,-9.35193 0.97817,-1.28982 0.7892,-1.99421 -0.63807,-2.37853 -0.5733,-0.15438 -1.04237,-0.40319 -1.04237,-0.55292 0,-0.14972 0.54168,-0.9372 1.20373,-1.74994 1.33295,-1.63634 1.44722,-2.45478 0.38377,-2.74885 -0.3717,-0.10279 -0.46811,-0.19447 -0.22008,-0.20929 1.64605,-0.0983 1.68039,1.10334 0.0874,3.05887 -1.18901,1.45963 -1.29822,1.94184 -0.43978,1.94184 0.67899,0 1.63076,0.7579 1.63076,1.29858 0,0.26116 -0.32742,0.90304 -0.72761,1.4264 -0.40018,0.52337 -1.6121,2.11865 -2.69316,3.54507 -3.41281,4.50309 -5.43332,6.95872 -5.72585,6.95892 -0.15569,1.1e-4 0.2359,-0.55709 0.87019,-1.23822 z m -19.480972,-3.19335 c -0.0244,-0.60805 0.80801,-1.65365 1.31645,-1.65365 0.15508,0 0.51301,0.12365 0.79539,0.27477 0.40288,0.21562 0.76474,0.12749 1.68076,-0.40933 l 1.16735,-0.68411 1.64401,0.69195 c 0.90421,0.38058 1.72915,0.59455 1.8332,0.47549 0.60588,-0.69327 6.354312,-8.03744 6.873312,-8.78131 0.58979,-0.84532 0.68665,-0.88429 1.85415,-0.74602 1.17318,0.13895 1.2535,0.10582 1.6864,-0.69559 0.78261,-1.44878 2.47454,-3.09404 3.14106,-3.0544 l 0.60593,0.036 -0.58997,0.11396 c -0.58066,0.11217 -2.61669,2.29346 -3.2166,3.44609 -0.26424,0.50771 -0.46179,0.57031 -1.4251,0.45164 -1.27366,-0.15691 -1.36713,-0.10526 -2.42519,1.34021 -1.28078,1.74971 -6.548972,8.33437 -6.668102,8.33437 -0.0609,0 -0.8313,-0.30326 -1.71194,-0.67392 l -1.60116,-0.67392 -1.16735,0.68411 c -0.94475,0.55366 -1.27046,0.62892 -1.70815,0.39468 -0.80234,-0.4294 -1.54116,-0.071 -1.81666,0.88118 -0.19107,0.66038 -0.2491,0.71407 -0.26779,0.24777 z M 111.5936,109.54357 c -0.70262,-0.14789 -0.76645,-0.19964 -0.26459,-0.2145 0.36381,-0.0108 1.13771,0.0789 1.71979,0.19933 0.88222,0.18248 0.92625,0.21817 0.26459,0.2145 -0.43656,-0.002 -1.21047,-0.0921 -1.71979,-0.19933 z"
       id="path279" />
    <path
       style="fill:#000000;stroke-width:0.264583"
       d="m -97.424037,213.61852 c 0,-0.18346 0.535783,-1.13222 1.190629,-2.10837 0.654845,-0.97614 1.012033,-1.70627 0.79375,-1.62251 -0.713358,0.27374 -0.446368,-0.71769 1.384409,-5.14083 1.554902,-3.75663 1.896988,-4.37705 2.662385,-4.82865 1.185087,-0.69922 1.516202,-0.65953 2.794296,0.33489 1.501359,1.16813 1.518647,1.20501 1.336519,2.85111 l -0.161007,1.4552 -4.667005,4.69636 c -4.369088,4.39656 -5.333976,5.18577 -5.333976,4.3628 z m 9.519275,-10.80024 c 0.0053,-1.12851 -0.07301,-1.26847 -1.138274,-2.03348 l -1.144001,-0.82156 -0.767849,0.5037 c -0.589873,0.38695 -1.116734,1.33014 -2.273076,4.06927 -1.923012,4.5552 -1.9533,4.65336 -1.435779,4.65336 0.712457,0 0.378992,0.88835 -0.993179,2.64584 -0.284042,0.3638 1.342706,-1.24355 3.614995,-3.57188 4.10712,-4.20842 4.131469,-4.24047 4.137163,-5.44525 z m -0.353102,-3.03354 c -1.328269,-1.01421 -1.408327,-1.29295 -0.908294,-3.16252 0.272474,-1.01875 0.253003,-1.37966 -0.130225,-2.41365 -0.843769,-2.27661 -0.358177,-2.23269 3.495003,0.31607 1.663033,1.10005 3.367077,2.17766 3.786765,2.39469 1.163836,0.60184 0.861165,1.24583 -0.689806,1.46769 -0.955231,0.13664 -1.606505,0.45735 -2.557931,1.2596 -0.702027,0.59196 -1.386758,1.07628 -1.521624,1.07628 -0.134869,0 -0.798119,-0.42217 -1.473888,-0.93816 z m 2.730817,-0.83508 c 0.750118,-0.64208 1.506554,-1.02944 2.19583,-1.12448 l 1.051508,-0.14498 -1.156018,-0.76584 c -0.63581,-0.42121 -2.125824,-1.39614 -3.311141,-2.16651 l -2.155124,-1.40067 0.390167,0.99327 c 0.344152,0.87612 0.343811,1.1708 -0.0029,2.49842 l -0.39305,1.50516 0.96152,0.79256 c 0.528833,0.43591 1.032021,0.79256 1.118193,0.79256 0.08617,0 0.671618,-0.44077 1.300996,-0.97949 z m -2.504281,-6.46326 c -1.600729,-1.01002 -3.190233,-2.1147 -3.53223,-2.45486 -0.597719,-0.59449 -0.608816,-0.67654 -0.286366,-2.1174 0.479411,-2.14223 0.783037,-2.48567 1.843611,-2.08535 0.755724,0.28526 0.94788,0.24999 1.802588,-0.3308 1.18296,-0.80384 1.265745,-0.80344 3.11594,0.0148 0.826883,0.36569 1.574419,0.59534 1.661191,0.51034 0.277869,-0.2722 3.102351,-3.86366 5.368529,-6.82632 l 2.197571,-2.87297 1.389062,0.14188 c 1.125863,0.11499 1.389063,0.0661 1.389063,-0.25823 0,-0.65137 2.407589,-3.53041 2.952295,-3.53041 0.707485,0 5.572853,0.79866 5.828726,0.9568 0.46495,0.28736 0.159195,0.99371 -1.108104,2.55995 -0.727604,0.89923 -1.322917,1.71653 -1.322917,1.81621 0,0.0997 0.386953,0.26399 0.859896,0.36511 1.874703,0.40086 1.993194,1.28508 0.424844,3.17032 -0.603081,0.72494 -2.072098,2.62776 -3.264479,4.22849 -2.55972,3.43632 -4.021797,5.20895 -4.544891,5.51023 -0.234236,0.13491 -0.932575,-0.0107 -1.824541,-0.38038 l -1.445061,-0.59895 -0.870167,0.84341 c -0.938454,0.90958 -1.381173,1.00967 -2.404182,0.54356 -0.601694,-0.27415 -0.801066,-0.17226 -2.327553,1.18944 -1.135242,1.01269 -1.881163,1.48163 -2.33095,1.4654 -0.363802,-0.0131 -1.971146,-0.85025 -3.571875,-1.86026 z m 5.447337,-0.0979 c 1.639914,-1.46327 2.402846,-1.73296 3.397089,-1.20086 0.36775,0.19682 0.618194,0.10154 1.107085,-0.42117 1.107999,-1.18463 1.451862,-1.25063 3.054734,-0.58627 l 1.463202,0.60646 0.771591,-0.91887 c 0.424376,-0.50538 1.806133,-2.28809 3.070571,-3.96158 1.264439,-1.67349 2.878591,-3.74312 3.587002,-4.59919 0.708414,-0.85606 1.190717,-1.65331 1.07179,-1.77167 -0.118928,-0.11835 -0.690856,-0.37044 -1.270953,-0.56019 -0.603517,-0.19741 -1.092253,-0.53992 -1.14246,-0.80064 -0.04825,-0.2506 0.515665,-1.20138 1.253157,-2.11284 0.737494,-0.91145 1.340898,-1.72747 1.340898,-1.81336 0,-0.0859 -1.190239,-0.33069 -2.644974,-0.54399 l -2.644976,-0.38781 -1.19017,1.4662 c -0.654593,0.80641 -1.190763,1.69121 -1.191485,1.96623 -0.0011,0.44669 -0.153726,0.48431 -1.429853,0.3526 l -1.428539,-0.14744 -1.991773,2.55782 c -6.284894,8.07101 -5.835279,7.68728 -7.820501,6.6745 -1.32025,-0.67355 -1.831576,-0.67653 -2.67648,-0.0156 -0.740863,0.57951 -1.381035,0.65828 -2.122951,0.26122 -0.619841,-0.33173 -0.986964,0.24608 -1.214153,1.91093 l -0.154906,1.13514 1.547568,0.99397 c 3.586859,2.30376 5.263034,3.33712 5.44017,3.35385 0.10364,0.01 0.922332,-0.63704 1.819317,-1.4374 z"
       id="path259" />
    <path
       style="fill:#000000;stroke-width:0.264583"
       d="m -155.00776,199.45064 c 0.1136,-0.21828 0.40423,-0.69453 0.64584,-1.05833 0.24161,-0.3638 0.72016,-1.12754 1.06344,-1.69718 l 0.62414,-1.03573 -0.57765,0.15106 c -0.31771,0.0831 -0.57765,0.12053 -0.57765,0.0832 0,-0.0373 0.82056,-2.0708 1.82347,-4.51887 1.70338,-4.15788 1.88761,-4.48393 2.7973,-4.95063 l 0.97383,-0.49961 1.17145,0.95992 c 1.10834,0.9082 1.17145,1.03297 1.17145,2.31615 v 1.35624 l -4.66108,4.64532 c -2.5636,2.55493 -4.56814,4.46672 -4.45454,4.24844 z m 8.52573,-13.83441 -0.98675,-0.84996 0.41094,-1.56443 c 0.37733,-1.43648 0.3746,-1.65959 -0.0335,-2.72805 -0.24442,-0.64 -0.40202,-1.20023 -0.35023,-1.24496 0.0518,-0.0447 1.77785,1.00431 3.83567,2.33118 3.80597,2.45408 4.02422,2.74463 2.09636,2.79078 -0.50236,0.012 -1.22007,0.39244 -2.03184,1.07693 -0.69032,0.58209 -1.41236,1.05387 -1.60453,1.0484 -0.19217,-0.005 -0.79345,-0.39241 -1.33617,-0.85989 z m 0.58989,-7.0961 c -4.20516,-2.58586 -4.15288,-2.52497 -3.76315,-4.38303 0.17397,-0.82937 0.4122,-1.60385 0.52941,-1.72106 0.11722,-0.11721 0.58521,-0.0727 1.03998,0.099 0.73976,0.27923 0.94096,0.23661 1.90977,-0.40452 0.99882,-0.66099 1.13919,-0.68767 1.80792,-0.34366 0.39876,0.20513 1.1663,0.55652 1.70563,0.78087 l 0.9806,0.40791 3.40505,-4.28114 c 1.87278,-2.35463 3.62582,-4.62035 3.89564,-5.03495 0.49899,-0.7667 0.71981,-0.79501 2.84511,-0.36466 0.16334,0.0331 0.34758,-0.17799 0.40943,-0.46903 0.18217,-0.85732 2.51594,-3.57906 2.96169,-3.45404 0.21828,0.0612 1.4982,0.26112 2.84427,0.44422 1.72875,0.23515 2.44739,0.43894 2.44739,0.69402 0,0.19861 -0.59531,1.09685 -1.32291,1.99609 -0.72761,0.89923 -1.32292,1.78325 -1.32292,1.96449 0,0.18123 0.32742,0.39955 0.7276,0.48516 1.16604,0.24943 1.91823,0.61424 1.91823,0.93032 0,0.16142 -0.92273,1.46855 -2.05052,2.90474 -1.12778,1.4362 -3.06255,3.92341 -4.29947,5.52714 -1.30285,1.68921 -2.44077,2.91836 -2.70491,2.92177 -0.25077,0.003 -0.9878,-0.25252 -1.63785,-0.56834 l -1.18192,-0.57422 -1.07488,0.9711 c -1.23919,1.11954 -1.13272,1.0908 -2.13048,0.57484 -0.75786,-0.3919 -0.78645,-0.37884 -2.60546,1.19063 -1.01155,0.87278 -1.94074,1.58474 -2.06487,1.58214 -0.12412,-0.003 -1.59489,-0.84671 -3.26838,-1.87578 z"
       id="path59" />
  </g>
</svg>
